# xmcd CD database file
#
# Track frame offsets:
#	150
#	16649
#	33171
#	51074
#	67630
#
# Disc length: 1580 seconds
#
# Revision: 0
# Processed by: cddbd v1.5.1PL2 Copyright (c) Steve Scherf et al.
# Submitted via: CDex 1.60beta1
#
DISCID=29062a05
DTITLE=Heartsdales - Angel Eyes
DYEAR=2005
DGENRE=JPop
TTITLE0=Angel Eyes
TTITLE1=Angel Eyes(English Ver.)
TTITLE2=Angel Eyes(Kagami Remix)
TTITLE3=Angel Eyes(Inst)
TTITLE4=Heartsdales DJ BOSS Super Mega-Mix
EXTD=YEAR: 2005
EXTT0=
EXTT1=
EXTT2=
EXTT3=
EXTT4=
PLAYORDER=
